<?xml version="1.0" encoding="UTF-8" standalone="no"?>
<!-- Created with Inkscape (http://www.inkscape.org/) -->

<svg
   xmlns:dc="http://purl.org/dc/elements/1.1/"
   xmlns:cc="http://creativecommons.org/ns#"
   xmlns:rdf="http://www.w3.org/1999/02/22-rdf-syntax-ns#"
   xmlns:svg="http://www.w3.org/2000/svg"
   xmlns="http://www.w3.org/2000/svg"
   xmlns:sodipodi="http://sodipodi.sourceforge.net/DTD/sodipodi-0.dtd"
   xmlns:inkscape="http://www.inkscape.org/namespaces/inkscape"
   width="800"
   height="480"
   viewBox="0 0 211.66666 127"
   version="1.1"
   id="svg8"
   inkscape:version="0.92.3 (2405546, 2018-03-11)"
   sodipodi:docname="5.svg"
   inkscape:export-filename="/home/akirasan/Descargas/Fotomaton-master/issues/5.png"
   inkscape:export-xdpi="96"
   inkscape:export-ydpi="96">
  <sodipodi:namedview
     id="base"
     pagecolor="#ffffff"
     bordercolor="#666666"
     borderopacity="1.0"
     inkscape:pageopacity="0.0"
     inkscape:pageshadow="2"
     inkscape:zoom="0.51696777"
     inkscape:cx="128.17665"
     inkscape:cy="34.37209"
     inkscape:document-units="mm"
     inkscape:current-layer="layer1"
     showgrid="false"
     units="px"
     inkscape:snap-text-baseline="true"
     inkscape:window-width="1863"
     inkscape:window-height="1025"
     inkscape:window-x="57"
     inkscape:window-y="27"
     inkscape:window-maximized="1" />
  <defs
     id="defs2" />
  <metadata
     id="metadata5">
    <rdf:RDF>
      <cc:Work
         rdf:about="">
        <dc:format>image/svg+xml</dc:format>
        <dc:type
           rdf:resource="http://purl.org/dc/dcmitype/StillImage" />
        <dc:title />
      </cc:Work>
    </rdf:RDF>
  </metadata>
  <g
     transform="translate(0,-169.99998)"
     id="layer1"
     inkscape:groupmode="layer"
     inkscape:label="Capa 1">
    <g
       id="g1718"
       transform="matrix(1.4197252,0,0,1.4197252,-8.8010944,-78.357888)">
      <path
         inkscape:connector-curvature="0"
         id="path1706"
         d="m 50.593831,228.83402 c -1.03981,-0.22209 -2.52706,-0.94448 -2.77696,-1.34885 -0.0906,-0.14655 -0.72321,-0.27169 -1.40585,-0.27807 -0.68263,-0.006 -1.7174,-0.18319 -2.29949,-0.3929 -0.58208,-0.2097 -1.66003,-0.38306 -2.39544,-0.38526 -2.81247,-0.008 -5.35831,-2.11281 -5.8132,-4.8053 -0.14158,-0.83803 -0.2685,-1.02119 -0.61508,-0.88761 -1.10334,0.42527 -3.80086,0.93689 -5.72836,1.08646 -3.94655,0.30625 -7.27541,-0.79146 -9.4635,-3.12066 -1.02817,-1.09447 -1.49296,-1.38533 -2.51355,-1.57299 -3.19606,-0.58766 -6.69058,-3.20686 -8.0837704,-6.05892 -2.53071,-5.1807 -0.61502,-10.42393 4.7423404,-12.97975 l 1.82473,-0.87052 0.009,-2.92599 c 0.0143,-4.64504 1.11273,-7.91313 3.45995,-10.29398 2.53209,-2.56837 5.47633,-3.49334 10.39146,-3.26462 l 3.27707,0.1525 1.6127,-1.09517 c 3.58901,-2.43725 7.76333,-3.50048 11.34613,-2.88993 1.95012,0.33232 4.58268,1.40368 6.09472,2.48035 0.74306,0.52911 1.15801,0.59559 3.75345,0.60133 2.72044,0.006 3.03769,0.0631 4.68534,0.84372 1.96446,0.93068 3.7629,2.4583 5.2441,4.45439 0.93911,1.26556 1.08372,1.3508 3.33514,1.96589 7.18035,1.96171 11.31373,5.91862 12.70478,12.16241 0.38107,1.71047 0.40112,2.28573 0.13404,3.84628 -1.00834,5.89162 -6.93655,11.74362 -13.44571,13.27286 -2.66501,0.62611 -6.51357,0.39223 -8.99511,-0.54664 l -1.90128,-0.71933 -1.21068,0.83296 c -0.66587,0.45813 -1.56647,0.957 -2.00132,1.10859 -0.91585,0.31927 -0.9052,0.2697 -0.38127,1.77411 0.22092,0.63437 0.33384,1.36715 0.25092,1.62841 -0.11335,0.35712 0.12823,0.62905 0.97329,1.09557 1.35863,0.75006 2.33516,2.11601 2.33516,3.26639 0,1.1307 -0.97173,2.51504 -2.2592,3.2185 -1.17249,0.64064 -3.48014,0.94572 -4.88455,0.64577 z m 4.49792,-1.81416 c 1.96533,-0.98179 0.39369,-2.60208 -2.28274,-2.35338 -1.62283,0.1508 -2.47977,0.62787 -2.47977,1.38054 0,1.24542 2.993,1.85681 4.76251,0.97284 z m -5.54959,-1.92122 c 0.57416,-0.29291 1.25189,-0.85846 1.50607,-1.25677 0.25418,-0.39831 0.7917,-1.03986 1.1945,-1.42567 0.90851,-0.8702 0.91714,-1.28728 0.048,-2.32021 -0.85405,-1.01497 -3.1298,-1.74319 -4.67531,-1.49605 -0.71407,0.11418 -1.43936,0.0244 -2.22428,-0.27538 -1.66703,-0.63664 -2.81244,-0.23336 -4.54735,1.60105 -1.44608,1.52902 -1.60643,2.08508 -0.9611,3.33301 0.57089,1.10398 1.79334,1.66409 3.31318,1.51805 0.87749,-0.0843 1.50968,0.021 2.13899,0.35634 1.19221,0.63527 2.92242,0.62113 4.20731,-0.0344 z m -14.84728,-5.54825 c 2.64696,-0.75477 5.57553,-2.21857 6.9178,-3.45774 l 1.10524,-1.02035 2.01973,0.6978 c 1.707,0.58977 2.49082,0.70054 5.06243,0.7154 3.80114,0.022 5.24891,-0.42473 7.22243,-2.22841 l 1.39548,-1.27539 1.04886,0.64022 c 2.9595,1.80648 7.33805,2.21254 10.91399,1.01214 3.89023,-1.30591 7.59461,-4.46167 9.29734,-7.92042 1.46732,-2.98053 1.35007,-5.6038 -0.40748,-9.11694 -1.68275,-3.36361 -5.07455,-5.61626 -10.63985,-7.06639 l -2.73277,-0.71207 -0.52983,-1.12717 c -0.69082,-1.46966 -2.7647,-3.52669 -4.37134,-4.33582 -1.52573,-0.76838 -4.30892,-1.01217 -6.03575,-0.52868 -1.14117,0.3195 -1.1827,0.30838 -2.31666,-0.62082 -1.92727,-1.57925 -4.39614,-2.58323 -6.74723,-2.74381 -3.36031,-0.2295 -6.12633,0.70016 -9.51799,3.199 -1.64278,1.21033 -1.65021,1.21268 -3.01268,0.9543 -2.13936,-0.40573 -6.07604,-0.31842 -7.58266,0.16817 -4.24476,1.3709 -6.4003,5.50997 -6.04694,11.61134 0.0843,1.45521 0.22501,2.89718 0.31273,3.20439 0.13878,0.48597 -0.002,0.59927 -1.08479,0.87187 -2.74154,0.69032 -5.28766,2.45698 -6.24472,4.33297 -2.33143,4.56998 1.64751,10.44136 7.43137,10.96582 1.49347,0.13542 1.66263,0.21569 2.04329,0.96963 0.82794,1.63984 1.93173,2.49556 4.18957,3.248 1.49255,0.49739 5.83408,0.26908 8.31043,-0.43704 z"
         style="fill:#000000;stroke-width:0.26458332" />
      <path
         transform="matrix(0.26458333,0,0,0.26458333,0,169.99998)"
         inkscape:connector-curvature="0"
         id="path1708"
         d="m 103.43241,189.06785 c -8.094592,-0.99641 -12.852182,-4.18505 -20.363633,-13.64815 -1.317532,-1.65986 -2.869157,-2.27747 -7.48052,-2.97755 -16.372854,-2.48568 -28.481665,-14.50478 -29.352402,-29.13494 -0.256328,-4.30684 0.06414,-6.37035 1.512056,-9.73612 3.192982,-7.42228 11.688856,-14.04103 22.558707,-17.57446 l 5.523555,-1.79552 -0.420614,-13.46762 C 75.075883,90.049556 75.269013,86.080971 76.34393,81.533313 78.958251,70.472899 85.21452,61.951337 93.756158,57.816401 c 6.656952,-3.222576 19.550252,-4.0088 33.804362,-2.061367 3.50441,0.478781 4.14208,0.225503 11.19657,-4.447187 13.75241,-9.109206 19.91492,-11.294119 31.63794,-11.217209 9.75783,0.06402 17.40036,2.642347 26.65195,8.99146 6.57104,4.509529 6.87198,4.622848 9.98296,3.759028 4.64365,-1.289398 14.28082,-1.101009 19.25585,0.376416 7.8812,2.340465 15.47242,9.39658 22.18558,20.621736 0.51173,0.855662 4.82421,2.517145 11.22078,4.323065 24.89455,7.028385 37.24941,17.02436 42.81409,34.639697 2.49986,7.91346 2.60396,12.86851 0.41896,19.94271 -5.10318,16.52219 -23.17717,32.41728 -41.87483,36.82666 -11.14571,2.62844 -25.54809,0.70913 -35.42529,-4.72089 l -4.82474,-2.65241 -5.28136,4.42812 c -8.56076,7.1777 -10.65652,7.84606 -25.64501,8.17847 -12.43725,0.27582 -13.15216,0.19914 -20.6572,-2.21561 l -7.7741,-2.50132 -4.4476,3.62262 c -5.79648,4.72129 -10.13053,7.20889 -18.11494,10.39735 -10.22414,4.08286 -25.36409,6.20136 -35.44772,4.96011 z"
         style="opacity:0.9729996;fill:#ffffff;fill-opacity:0.7638484;stroke:none;stroke-width:0.62828511;stroke-linecap:round;stroke-linejoin:round;stroke-miterlimit:4;stroke-dasharray:none;stroke-opacity:1;paint-order:fill markers stroke" />
      <path
         transform="matrix(0.26458333,0,0,0.26458333,0,169.99998)"
         inkscape:connector-curvature="0"
         id="path1710"
         d="m 172.83501,208.46468 c -1.82857,-0.7048 -6.47375,-1.55778 -10.32262,-1.89552 -6.65739,-0.58418 -7.13268,-0.76108 -9.76624,-3.63479 -4.52287,-4.9353 -3.47788,-9.15407 3.91354,-15.7996 4.93888,-4.44047 8.73411,-5.80324 12.6588,-4.54545 1.47694,0.47334 6.66389,1.13293 11.52656,1.46576 7.44954,0.50989 9.44399,0.9584 12.67069,2.84938 2.10622,1.23433 4.41696,3.38026 5.13497,4.76875 1.57937,3.05416 1.24016,3.68664 -6.03332,11.24951 -6.6152,6.87841 -12.23233,8.45202 -19.78238,5.54196 z"
         style="opacity:0.9729996;fill:#ffffff;fill-opacity:0.7638484;stroke:none;stroke-width:0.62828511;stroke-linecap:round;stroke-linejoin:round;stroke-miterlimit:4;stroke-dasharray:none;stroke-opacity:1;paint-order:fill markers stroke" />
      <path
         transform="matrix(0.26458333,0,0,0.26458333,0,169.99998)"
         inkscape:connector-curvature="0"
         id="path1712"
         d="m 194.02982,215.103 c -3.81589,-1.96688 -4.28873,-4.70898 -1.09049,-6.324 5.39086,-2.72223 13.95732,-2.21052 17.19497,1.02713 l 1.72367,1.72367 -2.24283,2.24283 c -2.96206,2.96206 -11.07602,3.65467 -15.58532,1.33037 z"
         style="opacity:0.9729996;fill:#ffffff;fill-opacity:0.7638484;stroke:none;stroke-width:0.62828511;stroke-linecap:round;stroke-linejoin:round;stroke-miterlimit:4;stroke-dasharray:none;stroke-opacity:1;paint-order:fill markers stroke" />
    </g>
  </g>
</svg>
