<?xml version="1.0" encoding="UTF-8" standalone="no"?>
<!-- Created with Inkscape (http://www.inkscape.org/) -->

<svg
   xmlns:dc="http://purl.org/dc/elements/1.1/"
   xmlns:cc="http://creativecommons.org/ns#"
   xmlns:rdf="http://www.w3.org/1999/02/22-rdf-syntax-ns#"
   xmlns:svg="http://www.w3.org/2000/svg"
   xmlns="http://www.w3.org/2000/svg"
   xmlns:sodipodi="http://sodipodi.sourceforge.net/DTD/sodipodi-0.dtd"
   xmlns:inkscape="http://www.inkscape.org/namespaces/inkscape"
   width="800"
   height="480"
   viewBox="0 0 211.66666 127"
   version="1.1"
   id="svg8"
   inkscape:version="0.92.3 (2405546, 2018-03-11)"
   sodipodi:docname="3.svg"
   inkscape:export-filename="/home/akirasan/Descargas/Fotomaton-master/issues/3.png"
   inkscape:export-xdpi="96"
   inkscape:export-ydpi="96">
  <sodipodi:namedview
     id="base"
     pagecolor="#ffffff"
     bordercolor="#666666"
     borderopacity="1.0"
     inkscape:pageopacity="0.0"
     inkscape:pageshadow="2"
     inkscape:zoom="1.0339355"
     inkscape:cx="404.28328"
     inkscape:cy="147.31641"
     inkscape:document-units="mm"
     inkscape:current-layer="layer1"
     showgrid="false"
     units="px"
     inkscape:snap-text-baseline="true"
     inkscape:window-width="1863"
     inkscape:window-height="1025"
     inkscape:window-x="57"
     inkscape:window-y="27"
     inkscape:window-maximized="1" />
  <defs
     id="defs2" />
  <metadata
     id="metadata5">
    <rdf:RDF>
      <cc:Work
         rdf:about="">
        <dc:format>image/svg+xml</dc:format>
        <dc:type
           rdf:resource="http://purl.org/dc/dcmitype/StillImage" />
        <dc:title />
      </cc:Work>
    </rdf:RDF>
  </metadata>
  <g
     transform="translate(0,-169.99998)"
     id="layer1"
     inkscape:groupmode="layer"
     inkscape:label="Capa 1">
    <path
       style="fill:#000000;stroke-width:0.10152556"
       d="m 145.00455,262.23178 c -0.039,-0.15202 0.18447,-0.47498 0.30298,-0.43798 0.11766,0.0367 -0.0247,0.49299 -0.16496,0.52894 -0.0592,0.0151 -0.12125,-0.026 -0.13802,-0.0909 z m 1.23606,-1.02407 c 0.41091,-0.35428 1.61232,-1.3073 2.6698,-2.11778 3.53412,-2.70867 5.33714,-4.31377 6.90055,-6.14306 1.57998,-1.84868 2.11199,-2.81329 2.85155,-5.17029 0.59927,-1.90898 0.6238,-2.27808 0.16605,-2.48119 -0.14538,-0.0645 -1.03493,-0.0749 -2.06575,-0.0241 -0.99573,0.049 -2.87813,0.0597 -4.18308,0.0236 -1.30496,-0.036 -2.84388,-0.0665 -3.41985,-0.0676 -0.65062,-0.001 -1.13751,-0.0544 -1.28566,-0.14037 -0.53102,-0.30793 -5.44897,-3.70185 -5.9632,-4.11523 -4.98464,-4.00718 -9.74004,-9.1697 -13.67421,-14.8449 -7.28978,-10.51581 -11.0726,-23.07431 -10.19469,-33.84508 0.43685,-5.35949 2.2217,-11.21228 4.45529,-14.60966 3.37304,-5.13048 8.38861,-7.71638 14.39314,-7.42075 3.7443,0.18435 7.34506,1.18184 10.52038,2.9144 5.36698,2.92838 10.86869,8.68965 14.24801,14.92024 1.06311,1.96011 1.68841,3.39826 2.14599,4.93567 0.17323,0.58203 0.35539,1.05597 0.4048,1.05321 0.10735,-0.006 1.67484,-0.9085 3.31147,-1.90664 2.58158,-1.57446 7.66225,-3.60187 11.24902,-4.48885 4.23383,-1.04702 8.99631,-1.38822 12.55666,-0.89965 4.22227,0.57939 8.38621,2.27331 11.09051,4.51169 1.65594,1.37064 2.6843,2.60171 3.66185,4.38369 1.75309,3.19565 2.29427,7.03949 1.62233,11.52258 -0.37573,2.50688 -1.55716,6.29852 -2.79356,8.966 -3.4669,7.47904 -9.68423,14.26677 -17.97086,19.61954 -1.23697,0.79902 -1.41587,0.88519 -1.44015,0.69366 -0.0337,-0.26633 -0.15992,-0.32007 -0.30896,-0.13158 -0.0649,0.082 -0.0616,0.20726 0.008,0.30151 0.10259,0.13869 -0.12831,0.30289 -1.6526,1.17515 -1.78394,1.02085 -4.3411,2.29329 -6.07366,3.02224 l -0.93588,0.39375 -0.25651,0.90093 c -0.56049,1.9683 -1.71784,4.32042 -2.93874,5.97254 -1.24186,1.68048 -3.34716,3.79821 -5.40098,5.43289 -2.77296,2.20705 -6.40215,4.27653 -7.11131,4.05508 -0.10233,-0.032 -0.18616,0.0292 -0.22976,0.16756 -0.0513,0.16236 -0.42972,0.35563 -1.48678,0.75907 -2.41677,0.92236 -3.42687,1.27245 -4.26013,1.47657 -0.4418,0.1082 -1.26127,0.35674 -1.82106,0.55228 -1.00604,0.35142 -7.04085,1.45146 -7.38063,1.34536 -0.11395,-0.0356 0.0419,-0.21793 0.59239,-0.69248 z m 9.69435,-3.49638 c 0.60352,-0.15307 1.43544,-0.38551 1.84871,-0.51652 1.70397,-0.54026 5.54535,-2.55556 6.25621,-3.28219 0.18351,-0.18764 0.59201,-0.48767 0.90768,-0.66679 0.8019,-0.45499 3.55172,-3.49441 5.20434,-5.75245 1.69449,-2.31529 3.214,-6.00571 3.39763,-8.25188 l 0.0547,-0.66944 1.83156,-0.97509 c 7.90272,-4.2073 13.67848,-8.98732 17.77273,-14.70869 4.65683,-6.50753 6.84534,-14.08352 5.76541,-19.9582 -0.80608,-4.38496 -3.44897,-7.90855 -7.56975,-10.09221 -1.20468,-0.63839 -4.26044,-1.64408 -5.69374,-1.87386 -2.43743,-0.39083 -4.24812,-0.36746 -7.20618,0.093 -2.71571,0.42273 -5.20901,1.16193 -8.02905,2.38047 -1.69719,0.73335 -5.91449,2.9378 -6.38075,3.33533 -0.72392,0.61719 -0.64523,0.68327 -1.76993,-1.48655 -1.07605,-2.076 -2.04899,-3.67951 -3.25448,-5.36382 -3.61813,-5.05526 -6.83085,-7.69812 -11.67978,-9.60811 -2.19187,-0.86336 -4.80716,-1.45086 -7.44683,-1.67283 -1.3146,-0.11053 -3.05691,0.0641 -4.22716,0.42362 -1.34971,0.41469 -3.95084,1.94818 -5.07435,2.99155 -0.25198,0.234 -0.8377,0.95134 -1.30158,1.5941 -3.11249,4.31249 -5.1009,11.89099 -4.87024,18.56222 0.19914,5.75996 1.40012,10.98476 3.80038,16.53346 2.96646,6.85755 8.31018,14.08502 13.57225,18.35667 1.64011,1.33141 7.05432,5.17772 7.4719,5.30812 0.47781,0.14921 7.91961,0.0141 9.32373,-0.16923 1.45039,-0.18939 1.38528,-0.21016 1.80937,0.57685 1.50422,2.79188 1.07515,5.81927 -1.39664,9.85446 -0.2827,0.4615 -0.56837,0.85304 -0.63483,0.87008 -0.0665,0.0171 -0.95431,0.91536 -1.973,1.99629 -1.01869,1.08093 -2.00729,2.09732 -2.19689,2.25864 -0.55505,0.4723 -0.52433,0.63404 0.0752,0.39608 0.2838,-0.11265 1.00979,-0.33004 1.61333,-0.4831 z m 44.0202,-38.78667 c 0.025,-0.08 0.004,-0.15818 -0.0459,-0.17385 -0.1222,-0.0382 -0.25697,0.0858 -0.20373,0.18744 0.0751,0.14324 0.20274,0.13623 0.24954,-0.0136 z m 1.70221,-2.55922 c 1.49233,-2.39691 3.11335,-6.83117 3.55751,-9.73154 1.17642,-7.6822 -2.39191,-13.16865 -10.10697,-15.53988 l -1.47635,-0.45474 1.15928,0.71547 c 3.6586,2.25795 6.2094,5.01251 7.60761,8.21532 1.20385,2.75759 1.69148,5.75971 1.42203,8.75461 -0.0796,0.88508 -0.19281,1.3568 -0.78342,3.26526 -0.65143,2.10621 -0.72756,2.29633 -1.36055,3.40412 -0.42773,0.74884 -0.80489,1.55464 -1.04243,2.22712 l -0.37212,1.05377 0.44106,-0.5427 c 0.24257,-0.29849 0.67219,-0.91395 0.9547,-1.3677 z"
       id="path1402"
       inkscape:connector-curvature="0" />
    <path
       style="opacity:0.9729996;fill:#ff0000;fill-opacity:0.7638484;stroke:none;stroke-width:0.20875452;stroke-linecap:round;stroke-linejoin:round;stroke-miterlimit:4;stroke-dasharray:none;stroke-opacity:1;paint-order:fill markers stroke"
       d="m 156.67275,255.54779 c 4.3599,-4.52155 5.76047,-9.09072 3.84249,-12.53535 -0.45536,-0.81779 -0.66251,-0.97413 -1.1637,-0.87822 -1.32546,0.25365 -9.33327,0.34508 -10.07702,0.11508 -1.12079,-0.3458 -7.47988,-5.1077 -9.72732,-7.28274 -5.60501,-5.42447 -10.34027,-12.98483 -12.84215,-20.50387 -1.14276,-3.43443 -2.20784,-9.83969 -2.19952,-13.22784 0.0171,-6.96093 2.56302,-15.10574 5.83161,-18.65791 1.40676,-1.52848 4.71185,-3.33597 6.6806,-3.65353 4.17184,-0.67289 11.18145,1.26072 15.37916,4.24237 3.03637,2.15673 6.2167,5.9895 9.10838,10.97691 0.9298,1.60368 1.75336,2.93542 1.83012,2.95939 0.0768,0.024 1.67664,-0.76279 3.55527,-1.74836 1.87864,-0.98556 4.63614,-2.21781 6.12779,-2.73831 3.23674,-1.12948 8.11701,-1.92501 10.66129,-1.73791 2.33258,0.17154 6.96136,1.60269 8.66856,2.68015 4.28747,2.70609 6.66762,7.13186 6.72895,12.5121 0.036,3.16005 -1.50865,8.93316 -3.2933,12.30854 -3.93389,7.44021 -9.59819,12.89336 -19.1483,18.43442 l -3.03189,1.75914 -0.86117,2.95869 c -1.00962,3.46898 -2.12984,5.44232 -4.92873,8.68233 -2.13923,2.47641 -4.51019,4.33711 -7.23753,5.67992 -1.7739,0.87339 -5.70443,2.24316 -6.09061,2.12256 -0.0816,-0.0255 0.90228,-1.136 2.18647,-2.46779 z"
       id="path1404"
       inkscape:connector-curvature="0" />
    <text
       xml:space="preserve"
       style="font-style:normal;font-variant:normal;font-weight:normal;font-stretch:normal;font-size:20.41451073px;line-height:125%;font-family:'Share Tech Mono';-inkscape-font-specification:'Share Tech Mono, Normal';text-align:start;letter-spacing:0px;word-spacing:0px;writing-mode:lr-tb;text-anchor:start;fill:#000000;fill-opacity:1;stroke:none;stroke-width:0.5103628px;stroke-linecap:butt;stroke-linejoin:miter;stroke-opacity:1"
       x="273.91559"
       y="105.26541"
       id="text1408"
       transform="matrix(0.62557581,0.19535083,-0.4548257,1.4564972,0,0)"><tspan
         sodipodi:role="line"
         id="tspan1406"
         x="273.91559"
         y="105.26541"
         style="font-style:normal;font-variant:normal;font-weight:normal;font-stretch:normal;font-size:20.41451073px;font-family:'Cabin Sketch';-inkscape-font-specification:'Cabin Sketch, Normal';font-variant-ligatures:normal;font-variant-caps:normal;font-variant-numeric:normal;font-feature-settings:normal;text-align:start;writing-mode:lr-tb;text-anchor:start;stroke-width:0.5103628px">M'Encanta!!!</tspan></text>
  </g>
</svg>
